<svg width="96" height="28" viewBox="0 0 96 28" fill="none" xmlns="http://www.w3.org/2000/svg">
<path d="M4.59132 17.3854C8.38725 16.8767 10.9016 13.1303 11.6842 11.3206L11.7016 11.2717H11.8799C12.0041 11.7009 12.27 12.1893 12.6096 12.689C14.2065 15.0383 16.5824 17.0185 19.3845 17.4847C20.7588 17.7134 21.3706 17.2653 21.5164 16.8474C22.1817 14.8128 20.2609 12.0543 19.2174 10.9294C17.5738 8.93388 14.7497 7.8481 13.543 7.55464C14.5996 6.18519 14.8964 4.31033 14.9127 3.54409C14.7562 0.374777 12.5647 -0.124096 11.4886 0.0226316C9.57103 0.257396 8.83076 1.91379 8.70031 2.71264C8.46551 4.43424 9.48298 6.75579 10.0211 7.70137C5.01201 8.6013 2.61836 12.9346 2.04767 14.9888C1.22587 17.6495 3.40102 17.6951 4.59132 17.3854Z" fill="url(#paint0_linear_116_173)"/>
<path d="M9.50336 19.5185C10.1388 20.0308 10.6567 20.6551 11.0517 21.2494C11.4226 21.8074 12.3684 21.8512 12.7574 21.3056C13.3164 20.5218 13.8833 19.9239 14.3976 19.481C14.9312 19.0215 14.9529 17.8449 14.4022 17.4062C13.8691 16.9816 13.4304 16.534 13.0769 16.1036C12.609 15.5337 11.2884 15.5378 10.8287 16.1144C10.3869 16.6683 9.89369 17.1462 9.42028 17.538C8.88301 17.9826 8.96045 19.0808 9.50336 19.5185Z" fill="url(#paint1_linear_116_173)"/>
<path d="M4.4651 19.519C7.47992 19.6418 9.89087 22.2325 11.2141 24.2759C11.5649 24.8177 12.4284 24.8222 12.7831 24.283C15.4864 20.1741 19.2952 19.3073 21.0018 19.4232C23.9725 19.8063 24.088 22.0096 23.7745 23.0633C22.4278 26.2054 18.5263 27.438 16.7439 27.6615C11.7928 28.2746 8.47551 27.9169 7.43577 27.6615C1.49443 26.6652 0.00909398 23.6381 0.00909298 22.2491C-0.188952 19.7584 2.89724 19.3912 4.4651 19.519Z" fill="url(#paint2_linear_116_173)"/>
<path d="M93.5009 8.33667C93.5009 8.02098 93.6082 7.7558 93.8229 7.54114C94.0502 7.31384 94.3217 7.2002 94.6374 7.2002C94.9531 7.2002 95.2182 7.31384 95.4329 7.54114C95.6602 7.7558 95.7739 8.02098 95.7739 8.33667C95.7739 8.65235 95.6602 8.92384 95.4329 9.15114C95.2182 9.3658 94.9531 9.47314 94.6374 9.47314C94.3217 9.47314 94.0502 9.3658 93.8229 9.15114C93.6082 8.92384 93.5009 8.65235 93.5009 8.33667ZM93.7471 11.14H95.5466V20.6105H93.7471V11.14Z" fill="black"/>
<path d="M85.6958 15.4017L89.8629 11.1399H91.7759L88.2718 14.7766L92.3442 20.6105H90.4122L87.0975 15.951L85.6958 17.4284V20.6105H83.8964V7.35168H85.6958V15.4017Z" fill="black"/>
<path d="M81.821 20.6105H80.0216V7.35168H81.821V20.6105Z" fill="black"/>
<path d="M67.9044 15.9131C67.9044 15.2059 68.0307 14.543 68.2832 13.9242C68.5358 13.3055 68.8767 12.7625 69.3061 12.2953C69.748 11.8281 70.2594 11.4619 70.8403 11.1967C71.4338 10.9315 72.0652 10.799 72.7344 10.799C73.4037 10.799 74.0287 10.9315 74.6096 11.1967C75.1905 11.4619 75.7019 11.8281 76.1438 12.2953V11.1399H77.9432V20.6105H76.1438V19.5308C75.7019 19.998 75.1905 20.3642 74.6096 20.6294C74.0287 20.8946 73.4037 21.0272 72.7344 21.0272C72.0652 21.0272 71.4338 20.8946 70.8403 20.6294C70.2594 20.3642 69.748 19.998 69.3061 19.5308C68.8767 19.0636 68.5358 18.5206 68.2832 17.9019C68.0307 17.2831 67.9044 16.6202 67.9044 15.9131ZM69.7038 15.8941C69.7038 16.3613 69.7859 16.8096 69.9501 17.239C70.1269 17.6683 70.3605 18.0471 70.6509 18.3754C70.9413 18.6911 71.2823 18.9437 71.6737 19.1331C72.0778 19.3225 72.5071 19.4172 72.9617 19.4172C73.4037 19.4172 73.8141 19.3225 74.1929 19.1331C74.5843 18.9437 74.919 18.6911 75.1968 18.3754C75.4872 18.0471 75.7145 17.6683 75.8787 17.239C76.0554 16.8096 76.1438 16.3613 76.1438 15.8941C76.1438 15.4269 76.0554 14.985 75.8787 14.5682C75.7145 14.1515 75.4872 13.7853 75.1968 13.4697C74.919 13.1413 74.5843 12.8825 74.1929 12.6931C73.8141 12.5037 73.4037 12.4089 72.9617 12.4089C72.5071 12.4089 72.0778 12.5037 71.6737 12.6931C71.2823 12.8825 70.9413 13.1413 70.6509 13.4697C70.3605 13.7853 70.1269 14.1515 69.9501 14.5682C69.7859 14.985 69.7038 15.4269 69.7038 15.8941Z" fill="black"/>
<path d="M57.8027 7.35168V14.3599L63.504 7.35168H65.9475L61.2879 13.0719L66.5536 20.6105H64.2238L60.0567 14.5872L57.8027 17.3526V20.6105H55.9086V7.35168H57.8027Z" fill="black"/>
<path d="M47.2785 8.33667C47.2785 8.02098 47.3858 7.7558 47.6005 7.54114C47.8278 7.31384 48.0993 7.2002 48.415 7.2002C48.7307 7.2002 48.9958 7.31384 49.2105 7.54114C49.4378 7.7558 49.5514 8.02098 49.5514 8.33667C49.5514 8.65235 49.4378 8.92384 49.2105 9.15114C48.9958 9.3658 48.7307 9.47314 48.415 9.47314C48.0993 9.47314 47.8278 9.3658 47.6005 9.15114C47.3858 8.92384 47.2785 8.65235 47.2785 8.33667ZM47.5247 11.14H49.3241V20.6105H47.5247V11.14Z" fill="black"/>
<path d="M45.9419 12.4469C45.5252 12.4469 45.14 12.5164 44.7865 12.6553C44.4329 12.7942 44.1235 12.9836 43.8583 13.2235C43.6058 13.4634 43.4038 13.7475 43.2522 14.0759C43.1007 14.3915 43.0249 14.7325 43.0249 15.0987V20.6106H41.2255V11.14H43.0249V12.2764C43.4038 11.8345 43.8331 11.4872 44.3129 11.2347C44.7928 10.9695 45.3358 10.8369 45.9419 10.8369V12.4469Z" fill="black"/>
<path d="M30.7467 10.6475C30.7467 9.96561 30.8856 9.39106 31.1634 8.92384C31.4413 8.444 31.7885 8.06517 32.2052 7.78737C32.6345 7.49694 33.1018 7.28859 33.6069 7.16231C34.1246 7.03604 34.6171 6.9729 35.0843 6.9729C36.0061 6.9729 36.8079 7.17494 37.4898 7.57902C38.1843 7.97047 38.7652 8.46925 39.2324 9.07537L37.755 10.0603C37.4393 9.69412 37.0478 9.37212 36.5806 9.09431C36.126 8.81651 35.5894 8.67761 34.9706 8.67761C34.7181 8.67761 34.4529 8.70917 34.1751 8.77231C33.9099 8.82282 33.6637 8.92384 33.4364 9.07537C33.2091 9.21427 33.0197 9.40368 32.8682 9.64361C32.7166 9.8709 32.6409 10.1613 32.6409 10.5149C32.6409 10.8306 32.704 11.1084 32.8303 11.3483C32.9692 11.5756 33.1649 11.7903 33.4174 11.9923C33.6826 12.1817 34.0046 12.3648 34.3835 12.5416C34.7749 12.7184 35.2169 12.9015 35.7093 13.0909C36.0503 13.2172 36.4354 13.3687 36.8647 13.5455C37.2941 13.7223 37.6982 13.9685 38.077 14.2842C38.4558 14.5873 38.7715 14.9724 39.024 15.4396C39.2892 15.8942 39.4218 16.4687 39.4218 17.1633C39.4218 17.883 39.2829 18.4891 39.0051 18.9816C38.7273 19.4615 38.3674 19.8529 37.9254 20.156C37.4961 20.4464 37.0163 20.6547 36.4859 20.781C35.9682 20.9199 35.4631 20.9894 34.9706 20.9894C34.4655 20.9894 33.9983 20.9262 33.569 20.8C33.1396 20.6863 32.7419 20.5285 32.3757 20.3264C32.0095 20.1118 31.6685 19.8655 31.3529 19.5877C31.0372 19.2973 30.7467 18.9816 30.4816 18.6407L31.8643 17.6557C32.0411 17.8451 32.2368 18.0409 32.4514 18.2429C32.6661 18.4323 32.906 18.6028 33.1712 18.7543C33.4364 18.9058 33.7205 19.0321 34.0236 19.1331C34.3266 19.2342 34.6486 19.2847 34.9896 19.2847C35.2421 19.2847 35.5136 19.2531 35.804 19.19C36.0945 19.1268 36.366 19.0195 36.6185 18.868C36.8837 18.7038 37.0984 18.4954 37.2625 18.2429C37.4393 17.9777 37.5277 17.6494 37.5277 17.258C37.5277 16.917 37.4519 16.6203 37.3004 16.3677C37.1615 16.1152 36.9658 15.8879 36.7132 15.6858C36.4607 15.4838 36.1576 15.307 35.804 15.1555C35.4505 14.9913 35.0653 14.8272 34.6486 14.663C34.2445 14.5115 33.8089 14.341 33.3417 14.1516C32.8871 13.9496 32.4641 13.7033 32.0726 13.4129C31.6938 13.1098 31.3781 12.7373 31.1256 12.2954C30.873 11.8534 30.7467 11.3041 30.7467 10.6475Z" fill="black"/>
<defs>
<linearGradient id="paint0_linear_116_173" x1="11.9467" y1="0" x2="11.9467" y2="28" gradientUnits="userSpaceOnUse">
<stop stop-color="#F5A5EA"/>
<stop offset="1" stop-color="#FE9C9B"/>
</linearGradient>
<linearGradient id="paint1_linear_116_173" x1="11.9467" y1="0" x2="11.9467" y2="28" gradientUnits="userSpaceOnUse">
<stop stop-color="#F5A5EA"/>
<stop offset="1" stop-color="#FE9C9B"/>
</linearGradient>
<linearGradient id="paint2_linear_116_173" x1="11.9467" y1="0" x2="11.9467" y2="28" gradientUnits="userSpaceOnUse">
<stop stop-color="#F5A5EA"/>
<stop offset="1" stop-color="#FE9C9B"/>
</linearGradient>
</defs>
</svg>
