<svg width="64" height="64" viewBox="0 0 64 64" fill="none" xmlns="http://www.w3.org/2000/svg">
<rect x="0.5" y="0.5" width="63" height="63" rx="5.5" fill="#F2F2F2"/>
<rect x="0.5" y="0.5" width="63" height="63" rx="5.5" stroke="white"/>
<path d="M32.0002 29.3989C31.5847 29.3989 31.2079 29.4228 30.9957 29.4588L29.9555 29.634C27.6076 30.0294 25.8752 32.0857 25.8752 34.5084C25.8752 35.7694 25.2516 36.9506 24.2075 37.654L24.0893 37.7336C23.7921 37.9338 23.4696 38.0933 23.1302 38.2075L21.7795 38.6625C21.3216 38.8167 20.8253 38.5705 20.671 38.1125C20.5168 37.6546 20.763 37.1583 21.2209 37.0039L22.5716 36.5491C22.7623 36.4848 22.9439 36.3951 23.1116 36.2821L23.2297 36.2026C23.7869 35.8272 24.1252 35.1923 24.1252 34.5084C24.1252 31.2446 26.4616 28.4478 29.6649 27.9083L30.7032 27.7334C31.0584 27.6733 31.5488 27.6489 32.0002 27.6489C32.4514 27.6489 32.9416 27.6731 33.2969 27.7334L34.3355 27.9083C37.5389 28.4478 39.8752 31.2446 39.8752 34.5084C39.8752 35.1923 40.2136 35.8272 40.7708 36.2026L40.8888 36.2821C41.0565 36.3951 41.2381 36.4848 41.4289 36.5491L42.7795 37.0039C43.2374 37.1583 43.4837 37.6546 43.3295 38.1125C43.1753 38.5705 42.679 38.8167 42.2209 38.6625L40.8703 38.2075C40.5309 38.0933 40.2083 37.9338 39.9112 37.7336L39.793 37.654C38.7488 36.9506 38.1252 35.7694 38.1252 34.5084C38.1252 32.0857 36.3928 30.0294 34.0449 29.634L33.0045 29.4588C32.7925 29.4228 32.4159 29.3989 32.0002 29.3989Z" fill="url(#paint0_linear_116_157)"/>
<path d="M34.9167 23.25C34.9167 24.8609 33.6109 26.1667 32 26.1667C30.3892 26.1667 29.0834 24.8609 29.0834 23.25C29.0834 21.6392 30.3892 20.3334 32 20.3334C33.6109 20.3334 34.9167 21.6392 34.9167 23.25Z" fill="url(#paint1_linear_116_157)"/>
<path fill-rule="evenodd" clip-rule="evenodd" d="M28.3833 36.1417C28.6732 35.755 29.2217 35.6768 29.6083 35.9667C29.9949 36.2566 30.0732 36.805 29.7833 37.1917L28.7047 38.6298C28.6961 38.6413 28.6877 38.6525 28.6793 38.6637C28.5318 38.8605 28.4158 39.0152 28.2822 39.1549C27.9534 39.4986 27.5523 39.765 27.1078 39.9346C26.9272 40.0036 26.7396 40.0505 26.501 40.11C26.4874 40.1134 26.4738 40.1169 26.4599 40.1202L24.3676 40.6434C23.8822 40.7647 23.5416 41.2009 23.5416 41.7012C23.5416 42.3034 24.0298 42.7917 24.6321 42.7917H25.4298C27.2333 42.7917 28.9883 42.2067 30.4311 41.1246L32.6416 39.4667C33.0283 39.1768 33.5767 39.255 33.8666 39.6417C34.1565 40.0283 34.0783 40.5768 33.6916 40.8667L32.6361 41.6583L33.2099 41.8734C33.8328 42.107 34.1137 42.212 34.3959 42.3003C35.2455 42.5658 36.1247 42.7252 37.0135 42.7749C37.3086 42.7913 37.6086 42.7917 38.2738 42.7917H39.3678C39.97 42.7917 40.4583 42.3034 40.4583 41.7012C40.4583 41.2009 40.1177 40.7647 39.6323 40.6434L37.9131 40.2136C37.8809 40.2055 37.8492 40.1976 37.8177 40.1898C37.2628 40.0514 36.8249 39.9423 36.4336 39.7167C36.3166 39.6493 36.204 39.5745 36.0966 39.4928C35.7368 39.2198 35.4662 38.8586 35.1235 38.4008C35.104 38.3749 35.0844 38.3487 35.0644 38.3221L34.2166 37.1917C33.9267 36.805 34.005 36.2566 34.3916 35.9667C34.7783 35.6768 35.3267 35.755 35.6166 36.1417L36.4644 37.2721C36.8944 37.8454 37.0145 37.9926 37.1545 38.0989C37.2034 38.136 37.2546 38.1699 37.3078 38.2006C37.4601 38.2885 37.6424 38.342 38.3375 38.5158L40.0567 38.9456C41.3213 39.2617 42.2083 40.3979 42.2083 41.7012C42.2083 43.27 40.9366 44.5417 39.3678 44.5417H38.2444C37.6162 44.5417 37.2655 44.5417 36.9158 44.5222C35.883 44.4644 34.8612 44.2792 33.8739 43.9706C33.5396 43.8661 33.2112 43.7429 32.623 43.5222L30.9518 42.8956C29.3144 43.9671 27.396 44.5417 25.4298 44.5417H24.6321C23.0633 44.5417 21.7916 43.27 21.7916 41.7012C21.7916 40.3979 22.6787 39.2617 23.9432 38.9456L26.0355 38.4225C26.3338 38.348 26.4135 38.3265 26.4837 38.2997C26.6858 38.2227 26.8681 38.1016 27.0175 37.9453C27.0696 37.8909 27.1202 37.8258 27.3047 37.5798L28.3833 36.1417Z" fill="url(#paint2_linear_116_157)"/>
<defs>
<linearGradient id="paint0_linear_116_157" x1="32.0002" y1="27.6489" x2="32.0002" y2="38.7085" gradientUnits="userSpaceOnUse">
<stop stop-color="#F5A5EA"/>
<stop offset="1" stop-color="#FE9C9B"/>
</linearGradient>
<linearGradient id="paint1_linear_116_157" x1="32" y1="20.3334" x2="32" y2="26.1667" gradientUnits="userSpaceOnUse">
<stop stop-color="#F5A5EA"/>
<stop offset="1" stop-color="#FE9C9B"/>
</linearGradient>
<linearGradient id="paint2_linear_116_157" x1="32" y1="35.7916" x2="32" y2="44.5417" gradientUnits="userSpaceOnUse">
<stop stop-color="#F5A5EA"/>
<stop offset="1" stop-color="#FE9C9B"/>
</linearGradient>
</defs>
</svg>
