<svg width="64" height="64" viewBox="0 0 64 64" fill="none" xmlns="http://www.w3.org/2000/svg">
<rect x="0.5" y="0.5" width="63" height="63" rx="5.5" fill="#F2F2F2"/>
<rect x="0.5" y="0.5" width="63" height="63" rx="5.5" stroke="white"/>
<path d="M28.5 39V23.8333L42.5 21.5V36.6667" stroke="url(#paint0_linear_116_144)" stroke-width="2" stroke-linecap="round" stroke-linejoin="round"/>
<path d="M21.5 39C21.5 39.9283 21.8687 40.8185 22.5251 41.4749C23.1815 42.1313 24.0717 42.5 25 42.5C25.9283 42.5 26.8185 42.1313 27.4749 41.4749C28.1313 40.8185 28.5 39.9283 28.5 39C28.5 38.0717 28.1313 37.1815 27.4749 36.5251C26.8185 35.8687 25.9283 35.5 25 35.5C24.0717 35.5 23.1815 35.8687 22.5251 36.5251C21.8687 37.1815 21.5 38.0717 21.5 39Z" stroke="url(#paint1_linear_116_144)" stroke-width="2" stroke-linecap="round" stroke-linejoin="round"/>
<path d="M35.5 36.6666C35.5 37.5949 35.8687 38.4851 36.5251 39.1415C37.1815 39.7979 38.0717 40.1666 39 40.1666C39.9283 40.1666 40.8185 39.7979 41.4749 39.1415C42.1313 38.4851 42.5 37.5949 42.5 36.6666C42.5 35.7384 42.1313 34.8481 41.4749 34.1918C40.8185 33.5354 39.9283 33.1666 39 33.1666C38.0717 33.1666 37.1815 33.5354 36.5251 34.1918C35.8687 34.8481 35.5 35.7384 35.5 36.6666Z" stroke="url(#paint2_linear_116_144)" stroke-width="2" stroke-linecap="round" stroke-linejoin="round"/>
<defs>
<linearGradient id="paint0_linear_116_144" x1="35.5" y1="21.5" x2="35.5" y2="39" gradientUnits="userSpaceOnUse">
<stop stop-color="#F5A5EA"/>
<stop offset="1" stop-color="#FE9C9B"/>
</linearGradient>
<linearGradient id="paint1_linear_116_144" x1="25" y1="35.5" x2="25" y2="42.5" gradientUnits="userSpaceOnUse">
<stop stop-color="#F5A5EA"/>
<stop offset="1" stop-color="#FE9C9B"/>
</linearGradient>
<linearGradient id="paint2_linear_116_144" x1="39" y1="33.1666" x2="39" y2="40.1666" gradientUnits="userSpaceOnUse">
<stop stop-color="#F5A5EA"/>
<stop offset="1" stop-color="#FE9C9B"/>
</linearGradient>
</defs>
</svg>
