<svg width="64" height="64" viewBox="0 0 64 64" fill="none" xmlns="http://www.w3.org/2000/svg">
<rect x="0.5" y="0.5" width="63" height="63" rx="5.5" fill="#F2F2F2"/>
<rect x="0.5" y="0.5" width="63" height="63" rx="5.5" stroke="white"/>
<path d="M32 20.3334C31.0717 20.3334 30.1815 20.7021 29.5251 21.3585C28.8687 22.0149 28.5 22.9051 28.5 23.8334V32C28.5 32.9283 28.8687 33.8185 29.5251 34.4749C30.1815 35.1313 31.0717 35.5 32 35.5C32.9283 35.5 33.8185 35.1313 34.4749 34.4749C35.1313 33.8185 35.5 32.9283 35.5 32V23.8334C35.5 22.9051 35.1313 22.0149 34.4749 21.3585C33.8185 20.7021 32.9283 20.3334 32 20.3334Z" stroke="url(#paint0_linear_116_150)" stroke-width="2" stroke-linecap="round" stroke-linejoin="round"/>
<path d="M40.1667 29.6666V32C40.1667 34.1659 39.3063 36.2431 37.7747 37.7747C36.2432 39.3062 34.166 40.1666 32 40.1666C29.8341 40.1666 27.7569 39.3062 26.2253 37.7747C24.6938 36.2431 23.8334 34.1659 23.8334 32V29.6666" stroke="url(#paint1_linear_116_150)" stroke-width="2" stroke-linecap="round" stroke-linejoin="round"/>
<path d="M32 40.1666V43.6666" stroke="url(#paint2_linear_116_150)" stroke-width="2" stroke-linecap="round" stroke-linejoin="round"/>
<defs>
<linearGradient id="paint0_linear_116_150" x1="32" y1="20.3334" x2="32" y2="35.5" gradientUnits="userSpaceOnUse">
<stop stop-color="#F5A5EA"/>
<stop offset="1" stop-color="#FE9C9B"/>
</linearGradient>
<linearGradient id="paint1_linear_116_150" x1="32" y1="29.6666" x2="32" y2="40.1666" gradientUnits="userSpaceOnUse">
<stop stop-color="#F5A5EA"/>
<stop offset="1" stop-color="#FE9C9B"/>
</linearGradient>
<linearGradient id="paint2_linear_116_150" x1="32.5" y1="40.1666" x2="32.5" y2="43.6666" gradientUnits="userSpaceOnUse">
<stop stop-color="#F5A5EA"/>
<stop offset="1" stop-color="#FE9C9B"/>
</linearGradient>
</defs>
</svg>
