<svg width="64" height="64" viewBox="0 0 64 64" fill="none" xmlns="http://www.w3.org/2000/svg">
<rect x="0.5" y="0.5" width="63" height="63" rx="5.5" fill="#F2F2F2"/>
<rect x="0.5" y="0.5" width="63" height="63" rx="5.5" stroke="white"/>
<path d="M20.3334 39C21.622 39 22.6667 40.0446 22.6667 41.3333H20.3334V39ZM20.3334 34.9166C23.8772 34.9166 26.75 37.7894 26.75 41.3333H24.4167C24.4167 39.0781 22.5885 37.25 20.3334 37.25V34.9166ZM20.3334 30.8333C26.1324 30.8333 30.8334 35.5343 30.8334 41.3333H28.5C28.5 36.823 24.8437 33.1666 20.3334 33.1666V30.8333ZM42.6196 22.6723C43.2079 22.7322 43.6667 23.2293 43.6667 23.8333V40.1666C43.6667 40.811 43.1444 41.3333 42.5 41.3333H33.1667V39H41.3334V25H22.6667V28.5H20.3334V23.8333L20.3391 23.7137C20.399 23.1255 20.8961 22.6666 21.5 22.6666H42.5L42.6196 22.6723ZM37.953 27.339C38.5412 27.3989 39 27.896 39 28.5V35.5C39 36.1443 38.4777 36.6666 37.8334 36.6666H32V34.3333H36.6667V29.6666H25V28.5L25.0057 28.3803C25.0656 27.7922 25.5627 27.3333 26.1667 27.3333H37.8334L37.953 27.339Z" fill="url(#paint0_linear_116_137)"/>
<defs>
<linearGradient id="paint0_linear_116_137" x1="32" y1="22.6666" x2="32" y2="41.3333" gradientUnits="userSpaceOnUse">
<stop stop-color="#F5A5EA"/>
<stop offset="1" stop-color="#FE9C9B"/>
</linearGradient>
</defs>
</svg>
